<?xml version="1.0" standalone="no"?>
<!DOCTYPE svg PUBLIC "-//W3C//DTD SVG 20010904//EN"
 "http://www.w3.org/TR/2001/REC-SVG-20010904/DTD/svg10.dtd">
<svg version="1.0" xmlns="http://www.w3.org/2000/svg"
 width="440.000000pt" height="252.000000pt" viewBox="0 0 440.000000 252.000000"
 preserveAspectRatio="xMidYMid meet">

<g transform="translate(0.000000,252.000000) scale(0.100000,-0.100000)"
fill="#0b5879" stroke="none">
<path d="M1162 1351 c-298 -517 -545 -947 -548 -955 -6 -15 97 -16 1096 -16
605 0 1099 3 1097 8 -3 4 -31 54 -64 112 -33 58 -104 182 -158 275 -693 1204
-860 1492 -870 1503 -9 10 -129 -192 -553 -927z m675 666 l122 -212 -246 -3
c-135 -1 -248 0 -250 2 -6 6 241 435 247 429 2 -2 59 -99 127 -216z m1 -406
c64 -19 121 -60 149 -109 l28 -47 5 -335 c3 -184 9 -341 13 -347 15 -23 56
-14 95 22 41 37 52 36 52 -2 0 -30 -90 -127 -142 -154 -21 -11 -58 -19 -83
-19 -38 0 -52 5 -76 29 -16 16 -32 43 -35 60 -4 20 -13 31 -23 31 -9 0 -52
-25 -95 -55 -144 -100 -277 -95 -365 12 -38 46 -51 89 -51 171 0 149 92 231
400 357 143 59 142 57 120 177 -18 104 -66 149 -160 150 -99 0 -140 -43 -144
-150 -3 -91 -26 -122 -91 -122 -73 0 -112 72 -85 156 16 47 82 119 133 146 88
44 254 58 355 29z"/>
<path d="M1710 1148 c-124 -55 -205 -130 -215 -200 -8 -55 -1 -92 26 -137 24
-40 96 -75 136 -65 41 10 115 49 152 79 l31 27 0 157 c0 147 -6 182 -29 181
-4 0 -49 -19 -101 -42z"/>
<path d="M2476 1638 c-27 -62 -52 -117 -57 -123 -15 -15 -10 -25 12 -25 11 0
17 5 14 10 -4 6 -1 26 5 45 11 34 13 35 61 35 44 0 50 -3 64 -31 9 -17 14 -37
11 -45 -4 -10 3 -14 23 -14 l29 0 -55 127 c-30 71 -56 129 -57 131 -2 1 -24
-48 -50 -110z m63 -46 c-10 -2 -30 -2 -43 0 l-25 3 22 49 21 50 22 -50 c21
-47 21 -49 3 -52z"/>
<path d="M3246 1639 c-27 -63 -55 -122 -64 -131 -14 -17 -13 -18 12 -18 16 0
25 4 21 10 -4 6 -1 26 5 45 11 34 13 35 61 35 44 0 50 -3 64 -31 9 -17 14 -37
11 -45 -4 -10 3 -14 23 -14 l29 0 -49 113 c-27 61 -53 120 -57 131 -6 14 -19
-7 -56 -95z m42 -47 c-22 -2 -42 -1 -44 1 -2 2 6 26 18 53 l21 49 22 -50 22
-50 -39 -3z"/>
<path d="M3492 1738 c-25 -13 -37 -46 -27 -77 3 -12 32 -36 63 -54 38 -22 58
-41 60 -56 10 -65 -81 -70 -116 -6 -10 18 -11 16 -12 -15 l0 -35 59 -3 c68 -3
104 17 104 61 0 35 -14 51 -79 88 -42 24 -54 36 -54 55 0 36 41 52 75 30 14
-10 30 -27 35 -39 7 -18 9 -14 9 22 1 34 -2 41 -12 33 -8 -7 -18 -7 -27 -2
-19 12 -49 11 -78 -2z"/>
<path d="M3897 1719 c-69 -160 -89 -205 -99 -216 -8 -10 -5 -13 15 -13 20 0
25 4 21 15 -4 9 -1 29 6 45 11 28 16 30 61 30 45 0 51 -3 60 -27 6 -15 8 -35
6 -45 -4 -15 1 -18 30 -18 27 0 33 3 25 13 -5 6 -33 66 -60 131 l-50 120 -15
-35z m42 -116 c1 -9 -13 -13 -40 -13 -37 0 -40 2 -33 23 3 12 13 36 22 52 l15
30 18 -40 c10 -22 18 -46 18 -52z"/>
<path d="M2705 1615 c0 -120 1 -125 21 -125 19 0 20 5 16 60 l-4 60 44 0 c53
0 78 22 78 68 0 43 -31 62 -100 62 l-55 0 0 -125z m96 105 c13 -7 19 -21 19
-43 0 -40 -15 -57 -52 -57 -27 0 -28 1 -28 55 0 49 2 55 21 55 11 0 29 -5 40
-10z"/>
<path d="M2915 1615 l0 -125 25 0 c24 0 25 2 22 60 l-4 60 61 0 61 0 0 -48 c0
-26 -5 -53 -12 -60 -9 -9 -5 -12 18 -12 l29 0 0 125 c0 118 -1 125 -20 125
-18 0 -20 -5 -17 -55 l4 -55 -61 0 -61 0 0 55 c0 50 -2 55 -22 55 -23 0 -23
-2 -23 -125z"/>
<path d="M3698 1636 c2 -64 -1 -112 -7 -125 -11 -19 -9 -21 16 -21 l28 0 0
125 c0 118 -1 125 -20 125 -19 0 -20 -6 -17 -104z"/>
<path d="M3494 1130 c-21 -50 -44 -96 -51 -102 -19 -15 -48 -1 -76 39 -26 36
-26 37 -7 50 22 16 27 62 8 81 -7 7 -39 12 -77 11 -37 0 -60 -3 -53 -6 8 -3
12 -32 12 -93 0 -61 -4 -90 -12 -93 -7 -3 7 -5 32 -5 25 0 39 2 33 5 -14 5
-18 83 -5 83 5 0 22 -20 40 -45 l32 -45 61 0 c48 0 59 3 51 13 -6 7 -6 21 -1
35 13 34 75 32 91 -4 10 -21 9 -27 -3 -35 -10 -6 -1 -9 29 -9 l43 0 -20 28
c-11 15 -32 59 -47 97 -15 39 -30 74 -34 78 -4 4 -24 -33 -46 -83z m-154 51
c13 -25 13 -27 -6 -45 -28 -28 -44 -20 -44 24 0 33 3 40 20 40 10 0 24 -9 30
-19z m204 -53 c9 -35 8 -38 -19 -38 -29 0 -29 0 -13 35 14 31 24 32 32 3z"/>
<path d="M2620 1190 c0 -23 15 -27 24 -5 3 8 15 15 26 15 19 0 20 -6 20 -89 0
-62 -4 -91 -12 -94 -7 -3 7 -5 32 -5 25 0 39 2 33 5 -9 3 -13 32 -13 94 0 82
2 89 20 89 10 0 24 -8 29 -17 9 -16 10 -16 11 5 0 21 -3 22 -85 22 -78 0 -85
-2 -85 -20z"/>
<path d="M2823 1203 c14 -4 17 -17 17 -88 0 -69 -3 -86 -17 -94 -14 -8 -7 -10
32 -10 39 0 46 2 33 10 -12 7 -18 22 -18 49 l0 40 45 0 45 0 0 -40 c0 -27 -6
-42 -17 -49 -14 -8 -7 -10 32 -10 39 0 46 2 33 10 -15 8 -18 25 -18 94 0 71 3
84 18 88 9 3 -5 5 -33 6 -38 0 -46 -2 -32 -10 11 -6 17 -22 17 -44 0 -35 0
-35 -45 -35 l-45 0 0 39 c0 29 5 41 18 44 9 3 -5 5 -33 5 -27 0 -42 -2 -32 -5z"/>
<path d="M3048 1203 c8 -3 12 -32 12 -93 0 -61 -4 -90 -12 -93 -7 -3 22 -6 65
-6 72 -1 78 1 86 22 11 28 5 36 -12 13 -9 -13 -24 -17 -52 -14 -38 3 -40 4
-40 38 0 32 3 35 33 38 18 2 32 -1 32 -7 0 -6 5 -11 10 -11 6 0 10 14 10 30 0
17 -4 30 -10 30 -5 0 -10 -4 -10 -10 0 -5 -16 -10 -36 -10 -34 0 -35 1 -32 33
3 29 7 32 38 35 24 3 38 -2 47 -14 12 -17 13 -16 13 4 0 21 -4 22 -77 21 -43
0 -72 -3 -65 -6z"/>
<path d="M3668 1203 c8 -3 12 -32 12 -93 0 -61 -4 -90 -12 -93 -7 -3 7 -5 32
-5 25 0 39 2 33 5 -8 2 -13 22 -13 44 0 36 2 39 28 39 54 0 81 60 44 93 -13
12 -36 17 -78 16 -32 0 -53 -3 -46 -6z m90 -15 c25 -25 8 -78 -25 -78 -9 0
-13 15 -13 45 0 46 13 58 38 33z"/>
<path d="M3846 1202 c6 -4 25 -28 42 -54 23 -33 32 -58 32 -87 0 -30 4 -41 15
-41 11 0 15 11 15 43 0 32 9 55 35 95 33 48 34 52 15 52 -12 0 -18 -4 -15 -10
3 -5 -5 -29 -18 -51 l-25 -42 -26 42 c-15 23 -24 46 -21 51 4 6 -8 10 -27 10
-18 0 -28 -4 -22 -8z"/>
<path d="M2938 728 c16 -16 16 -170 0 -186 -9 -9 -2 -12 32 -12 34 0 41 3 32
12 -7 7 -12 29 -12 50 0 34 3 38 24 38 15 0 26 -7 29 -17 3 -10 5 0 5 22 0 22
-2 34 -5 28 -2 -7 -16 -13 -29 -13 -21 0 -24 5 -24 35 0 33 2 35 31 35 18 0
38 -7 46 -17 12 -17 13 -16 11 7 -3 24 -6 25 -78 28 -60 2 -72 0 -62 -10z"/>
<path d="M3113 729 c14 -8 17 -25 17 -94 0 -69 -3 -86 -17 -94 -14 -8 -7 -10
32 -10 39 0 46 2 33 10 -15 8 -18 25 -18 94 0 69 3 86 18 94 13 8 6 10 -33 10
-39 0 -46 -2 -32 -10z"/>
<path d="M3200 731 c0 -5 9 -11 20 -14 18 -5 20 -14 20 -86 0 -66 -3 -82 -17
-90 -15 -8 -10 -10 21 -11 37 0 38 1 23 18 -18 20 -25 122 -8 122 5 0 35 -33
67 -72 l59 -73 3 95 c2 75 6 98 19 108 14 10 11 12 -21 12 -32 0 -36 -2 -27
-14 7 -8 11 -38 9 -70 l-3 -55 -55 69 c-44 55 -61 69 -82 70 -16 0 -28 -4 -28
-9z"/>
<path d="M3443 730 c14 -9 17 -26 17 -95 0 -69 -3 -86 -17 -94 -25 -14 69 -15
119 -1 48 14 68 43 68 100 0 37 -5 52 -26 71 -21 20 -37 24 -102 27 -59 2 -73
0 -59 -8z m133 -31 c13 -14 19 -36 19 -66 0 -52 -28 -83 -76 -83 l-29 0 0 85
0 85 33 0 c22 0 41 -8 53 -21z"/>
<path d="M3674 725 c23 -23 23 -151 -1 -177 -15 -17 -13 -18 60 -18 67 0 78 3
87 21 6 11 10 25 7 32 -2 7 -9 2 -16 -11 -9 -17 -20 -22 -51 -22 -40 0 -40 0
-40 40 0 37 2 40 28 40 15 0 33 -5 40 -12 9 -9 12 -3 12 28 -1 31 -3 36 -11
22 -6 -11 -22 -18 -39 -18 -28 0 -30 3 -30 35 0 34 1 35 36 35 23 0 42 -7 51
-17 12 -17 13 -16 11 7 -3 24 -6 25 -82 28 -72 3 -77 2 -62 -13z"/>
<path d="M3864 724 c23 -22 22 -150 -1 -176 -15 -17 -14 -18 27 -18 34 0 41 3
32 12 -7 7 -12 30 -12 52 0 39 0 39 20 21 12 -10 30 -34 41 -52 14 -23 28 -33
45 -33 13 0 24 2 24 3 0 2 -19 23 -41 47 -42 44 -42 44 -20 58 29 19 28 66 -1
86 -14 10 -44 16 -76 16 -49 0 -52 -1 -38 -16z m94 -16 c16 -16 15 -33 -4 -52
-28 -28 -44 -20 -44 24 0 32 4 40 18 40 10 0 23 -5 30 -12z"/>
</g>
</svg>
